<?xml version="1.0" encoding="UTF-8"?>
<!DOCTYPE svg PUBLIC "-//W3C//DTD SVG 1.1//EN" "http://www.w3.org/Graphics/SVG/1.1/DTD/svg11.dtd">
<svg xmlns="http://www.w3.org/2000/svg" version="1.1" width="192px" height="192px" style="shape-rendering:geometricPrecision; text-rendering:geometricPrecision; image-rendering:optimizeQuality; fill-rule:evenodd; clip-rule:evenodd" xmlns:xlink="http://www.w3.org/1999/xlink">
<g><path style="opacity:0.052" fill="#010101" d="M 117.5,191.5 C 102.5,191.5 87.5,191.5 72.5,191.5C 21.9806,174.434 -1.85278,139.101 1,85.5C 8.59245,43.2756 33.0925,16.4423 74.5,5C 119.502,-1.90158 154.336,13.5984 179,51.5C 197.844,91.3942 193.51,128.394 166,162.5C 152.46,176.682 136.293,186.348 117.5,191.5 Z"/></g>
<g><path style="opacity:1" fill="#fdfdfd" d="M 131.5,175.5 C 125.457,176.735 119.79,178.735 114.5,181.5C 114.167,181.5 113.833,181.5 113.5,181.5C 107.509,181.9 101.509,182.233 95.5,182.5C 88.1261,182.155 80.7927,181.488 73.5,180.5C 36.7862,169.615 14.9528,145.282 8,107.5C 4.67464,59.954 25.1746,27.7873 69.5,11C 113.915,0.63843 148.415,14.4718 173,52.5C 189.565,87.3615 186.565,120.362 164,151.5C 154.959,162.057 144.125,170.057 131.5,175.5 Z"/></g>
<g><path style="opacity:1" fill="#54b3fe" d="M 53.5,76.5 C 62.2835,78.1353 64.6168,82.9686 60.5,91C 50.3718,93.8763 46.2051,90.043 48,79.5C 49.8761,78.3913 51.7095,77.3913 53.5,76.5 Z"/></g>
<g><path style="opacity:1" fill="#1e6bd2" d="M 135.5,83.5 C 137.308,84.9179 137.975,86.9179 137.5,89.5C 139.924,89.1924 142.257,89.5258 144.5,90.5C 141.914,91.48 139.247,91.8134 136.5,91.5C 136.334,95.8461 136.501,100.179 137,104.5C 139.405,105.274 141.905,105.774 144.5,106C 141.854,106.497 139.187,106.664 136.5,106.5C 135.5,106.167 134.833,105.5 134.5,104.5C 134.5,100.167 134.5,95.8333 134.5,91.5C 133.127,91.6567 131.793,91.49 130.5,91C 131.056,90.6174 131.389,90.1174 131.5,89.5C 132.209,88.596 133.209,88.2627 134.5,88.5C 134.216,86.5853 134.549,84.9187 135.5,83.5 Z"/></g>
<g><path style="opacity:1" fill="#87cf51" d="M 44.5,91.5 C 51.2646,91.4641 53.2646,94.6308 50.5,101C 43.3778,103.055 40.3778,100.221 41.5,92.5C 42.791,92.7373 43.791,92.404 44.5,91.5 Z"/></g>
<g><path style="opacity:1" fill="#1267d1" d="M 99.5,89.5 C 100.167,89.5 100.5,89.8333 100.5,90.5C 99.8333,111.833 99.1667,111.833 98.5,90.5C 95.4816,90.6646 92.4816,90.498 89.5,90C 92.8168,89.5017 96.1501,89.335 99.5,89.5 Z"/></g>
<g><path style="opacity:1" fill="#2f74d5" d="M 123.5,99.5 C 120.482,99.6646 117.482,99.498 114.5,99C 115.056,98.6174 115.389,98.1174 115.5,97.5C 117.948,96.5269 120.615,96.1936 123.5,96.5C 123.5,95.1667 123.5,93.8333 123.5,92.5C 120.038,91.5184 116.371,91.185 112.5,91.5C 112.5,94.5 112.5,97.5 112.5,100.5C 112.5,101.5 112.5,102.5 112.5,103.5C 117.017,104.166 121.683,104.833 126.5,105.5C 120.78,106.785 115.113,106.785 109.5,105.5C 108.35,100.684 108.184,95.6842 109,90.5C 109.5,90 110,89.5 110.5,89C 115.5,88.3333 120.5,88.3333 125.5,89C 128.547,93.2175 127.881,96.7175 123.5,99.5 Z"/></g>
<g><path style="opacity:1" fill="#aeccef" d="M 123.5,92.5 C 120.167,92.5 116.833,92.5 113.5,92.5C 113.077,94.7812 113.744,96.4479 115.5,97.5C 115.389,98.1174 115.056,98.6174 114.5,99C 117.482,99.498 120.482,99.6646 123.5,99.5C 120.038,100.482 116.371,100.815 112.5,100.5C 112.5,97.5 112.5,94.5 112.5,91.5C 116.371,91.185 120.038,91.5184 123.5,92.5 Z"/></g>
<g><path style="opacity:1" fill="#5a92de" d="M 136.5,106.5 C 139.187,106.664 141.854,106.497 144.5,106C 141.905,105.774 139.405,105.274 137,104.5C 136.501,100.179 136.334,95.8461 136.5,91.5C 139.247,91.8134 141.914,91.48 144.5,90.5C 142.257,89.5258 139.924,89.1924 137.5,89.5C 137.975,86.9179 137.308,84.9179 135.5,83.5C 135.811,82.5222 136.478,81.8555 137.5,81.5C 138.474,83.7427 138.808,86.076 138.5,88.5C 140.833,88.5 143.167,88.5 145.5,88.5C 145.5,89.8333 145.5,91.1667 145.5,92.5C 143.167,92.5 140.833,92.5 138.5,92.5C 138.5,96.1667 138.5,99.8333 138.5,103.5C 140.833,103.5 143.167,103.5 145.5,103.5C 145.5,104.833 145.5,106.167 145.5,107.5C 142.287,107.81 139.287,107.477 136.5,106.5 Z"/></g>
<g><path style="opacity:1" fill="#eff5fb" d="M 123.5,92.5 C 123.5,93.8333 123.5,95.1667 123.5,96.5C 120.615,96.1936 117.948,96.5269 115.5,97.5C 113.744,96.4479 113.077,94.7812 113.5,92.5C 116.833,92.5 120.167,92.5 123.5,92.5 Z"/></g>
<g><path style="opacity:1" fill="#9ec3ec" d="M 131.5,89.5 C 131.389,90.1174 131.056,90.6174 130.5,91C 131.793,91.49 133.127,91.6567 134.5,91.5C 134.5,95.8333 134.5,100.167 134.5,104.5C 133.517,100.702 133.183,96.7016 133.5,92.5C 132.167,92.5 130.833,92.5 129.5,92.5C 129.285,90.8212 129.952,89.8212 131.5,89.5 Z"/></g>
<g><path style="opacity:1" fill="#5390de" d="M 99.5,89.5 C 96.1501,89.335 92.8168,89.5017 89.5,90C 92.4816,90.498 95.4816,90.6646 98.5,90.5C 99.1667,111.833 99.8333,111.833 100.5,90.5C 101.489,95.9753 101.822,101.642 101.5,107.5C 100.167,107.5 98.8333,107.5 97.5,107.5C 97.5,102.167 97.5,96.8333 97.5,91.5C 93.8936,91.2108 90.3936,91.5442 87,92.5C 86.5007,97.4889 86.3341,102.489 86.5,107.5C 85.1667,107.5 83.8333,107.5 82.5,107.5C 82.5,101.167 82.5,94.8333 82.5,88.5C 88.2517,88.5127 93.9183,88.846 99.5,89.5 Z"/></g>
<g><path style="opacity:1" fill="#0862d0" d="M 83.5,89.5 C 84.8142,91.9151 85.4809,94.7485 85.5,98C 85.1667,100.833 84.8333,103.667 84.5,106.5C 83.5046,100.872 83.1712,95.2055 83.5,89.5 Z"/></g>
<g><path style="opacity:1" fill="#68c0a7" d="M 56.5,93.5 C 63.5288,93.5304 65.8621,96.8637 63.5,103.5C 55.7137,106.043 52.547,103.377 54,95.5C 54.9947,94.9341 55.828,94.2674 56.5,93.5 Z"/></g>
<g><path style="opacity:1" fill="#64befe" d="M 66.5,99.5 C 71.7087,98.7052 73.7087,100.705 72.5,105.5C 66.4876,107.455 64.4876,105.455 66.5,99.5 Z"/></g>
<g><path style="opacity:1" fill="#7dccaa" d="M 48.5,103.5 C 53.9836,103.481 55.6503,105.981 53.5,111C 46.3844,112.151 44.7177,109.651 48.5,103.5 Z"/></g>
<g><path style="opacity:1" fill="#75a7e4" d="M 112.5,103.5 C 117.5,103.5 122.5,103.5 127.5,103.5C 127.5,104.833 127.5,106.167 127.5,107.5C 121.074,108.12 115.074,107.453 109.5,105.5C 115.113,106.785 120.78,106.785 126.5,105.5C 121.683,104.833 117.017,104.166 112.5,103.5 Z"/></g>
<g><path style="opacity:1" fill="#6bc5fe" d="M 58.5,106.5 C 66.9546,105.599 69.6212,108.932 66.5,116.5C 57.5529,118.218 54.8863,114.885 58.5,106.5 Z"/></g>
<g><path style="opacity:0.98" fill="#b8b8b8" d="M 131.5,175.5 C 126.339,178.666 120.673,180.666 114.5,181.5C 119.79,178.735 125.457,176.735 131.5,175.5 Z"/></g>
<g><path style="opacity:0.965" fill="#bcbcbc" d="M 73.5,180.5 C 80.7927,181.488 88.1261,182.155 95.5,182.5C 101.509,182.233 107.509,181.9 113.5,181.5C 107.74,183 101.74,183.667 95.5,183.5C 87.8373,183.888 80.504,182.888 73.5,180.5 Z"/></g>
</svg>
